# xmcd
#
# Track frame offsets:
#	150
#	12130
#	23165
#	36727
#	48285
#	59685
#	70655
#	82665
#	95705
#	109045
#	127187
#	137262
#	153632
#
# Disc length: 2250 seconds
#
# Revision: 1
# Processed by: cddbd v1.4PL0 Copyright (c) Steve Scherf et al.
# Submitted via: audiograbber 1.80
#
DISCID=ab08c80d
DTITLE=Frank frost - Jelly Roll Blues
DYEAR=1900
DGENRE=
TTITLE0=My Back Scratcher
TTITLE1=Never leave Me at Home
TTITLE2=Harpin' on It
TTITLE3=Things You Do
TTITLE4=Feel Good Babe
TTITLE5=Pocket Full of Money
TTITLE6=Ride with Your Daddy Tonight
TTITLE7=Got My Mojo Working
TTITLE8=Harp and Soul
TTITLE9=Didn't Mean You No Harm
TTITLE10=Pretty Baby
TTITLE11=Five Long Years
TTITLE12=Janie on My Mind
EXTD=
EXTT0=
EXTT1=
EXTT2=
EXTT3=
EXTT4=
EXTT5=
EXTT6=
EXTT7=
EXTT8=
EXTT9=
EXTT10=
EXTT11=
EXTT12=
PLAYORDER=
